<svg xmlns="http://www.w3.org/2000/svg" version="1.1" xmlns:xlink="http://www.w3.org/1999/xlink"
    xmlns:svgjs="http://svgjs.dev/svgjs" width="1000" height="625" viewBox="0 0 1000 625">
    <g transform="matrix(1,0,0,1,0,0)">
        <svg viewBox="0 0 576 360" data-background-color="#ffffff"
            preserveAspectRatio="xMidYMid meet" height="625" width="1000"
            xmlns="http://www.w3.org/2000/svg" xmlns:xlink="http://www.w3.org/1999/xlink">
            <g id="tight-bounds" transform="matrix(1,0,0,1,0,0)">
                <svg viewBox="0 0 576 360" height="360" width="576">
                    <g>
                        <svg></svg>
                    </g>
                    <g>
                        <svg viewBox="0 0 576 360" height="360" width="576">
                            <g>
                                <path xmlns="http://www.w3.org/2000/svg"
                                    d="M132.115 90l155.885-90 155.885 90v180l-155.885 90-155.885-90zM141.235 264.735l146.765 84.734 146.765-84.734v-169.47l-146.765-84.734-146.765 84.734z"
                                    fill="#6230a3" fill-rule="nonzero" stroke="none"
                                    stroke-width="1" stroke-linecap="butt" stroke-linejoin="miter"
                                    stroke-miterlimit="10" stroke-dasharray="" stroke-dashoffset="0"
                                    font-family="none" font-weight="none" font-size="none"
                                    text-anchor="none" style="mix-blend-mode: normal"
                                    data-fill-palette-color="tertiary"></path>
                            </g>
                            <g transform="matrix(1,0,0,1,172.8,112.2465625441696)">
                                <svg viewBox="0 0 230.4 135.5068749116608"
                                    height="135.5068749116608" width="230.4">
                                    <g>
                                        <svg viewBox="0 0 230.4 135.5068749116608"
                                            height="135.5068749116608" width="230.4">
                                            <g>
                                                <svg viewBox="0 0 230.4 135.5068749116608"
                                                    height="135.5068749116608" width="230.4">
                                                    <g id="textblocktransform">
                                                        <svg viewBox="0 0 230.4 135.5068749116608"
                                                            height="135.5068749116608" width="230.4"
                                                            id="textblock">
                                                            <g>
                                                                <svg
                                                                    viewBox="0 0 230.4 135.5068749116608"
                                                                    height="135.5068749116608"
                                                                    width="230.4">
                                                                    <path
                                                                        d="M229.861 29.064C228.777 14.998 225.69 11.088 225.69 11.088 216.213-3.4 204.385-0.277 193.759 1.805 174.999 1.889 156.314 4.983 137.597 6.643 98.311 6.896 58.689 2.733 19.598 13.001 15.926 16.151-3.809 13.62 0.653 30.864 1.823 38.037 6.091 45.999 5.961 52.581 6.546 53.735 7.358 51.09 7.705 52.75 8.918 57.223 10.9 55.113 12.525 57.757 10.261 64.818 11.886 70.698 13.434 76.858 10.705 78.462 7.206 77.702 5.636 83.019 5.473 86.873 4.596 86.142 3.632 85.973 2.928 85.86 1.509 86.282 1.747 87.492 2.56 91.627-0.928 94.018 1.26 98.069-0.246 102.458 2.3 106.255 1.953 111.01 1.91 111.966 2.148 112.782 2.527 113.007 4.206 114.217 1.758 116.58 2.018 119.14 19.24 136.637 37.925 124.541 55.569 132.586 60.151 126.96 56.707 134.584 58.537 133.402 59.967 132.024 61.007 137.734 62.621 134.499 62.87 133.571 62.491 131.377 63.379 131.799 63.845 132.024 64.256 131.967 64.321 130.673 64.419 128.732 63.563 129.942 63.336 128.929 65.794 123.809 65.188 135.99 67.495 135.484 67.387 133.993 66.715 131.855 68.091 132.136 69.455 129.998 69.499 128.226 70.712 133.036 70.755 134.077 70.972 134.809 71.318 135.315 75.11 130.083 78.879 137.172 82.854 134.809 85.291 132.22 87.631 136.215 90.1 135.231 90.967 134.443 91.844 133.036 92.678 135.399 102.893 135.906 113.778 133.796 123.462 135.484 149.338 132.333 176.992 136.778 204.276 132.614 210.71 131.011 217.393 128.732 223.665 126.904 223.665 126.904 228.745 121.896 228.745 99.391S229.828 79.7 229.991 61.78C230.153 43.861 230.911 43.129 229.828 29.064Z"
                                                                        opacity="1" fill="#6230a3"
                                                                        data-fill-palette-color="tertiary"></path>
                                                                    <g
                                                                        transform="matrix(1,0,0,1,32.4864,17.19)">
                                                                        <svg width="165.4272"
                                                                            viewBox="-0.8500000238418579 -42.349998474121094 70.75 43.25"
                                                                            height="101.12687491166078"
                                                                            data-palette-color="#ffffff">
                                                                            <path
                                                                                d="M24.7-42.1Q26-42.1 26.9-41.48 27.8-40.85 27.8-39.95L27.8-39.95Q27.8-38.35 26.8-37.38 25.8-36.4 23.95-36.4L23.95-36.4Q21.05-36.4 19.55-36.35L19.55-36.35Q19.45-35.75 18.65-30.95L18.65-30.95Q17.75-25.6 17.55-24.4L17.55-24.4 16.5-17.85Q15.4-10.5 14.75-5.55L14.75-5.55Q15.8-5.6 17.6-5.6L17.6-5.6Q20.25-5.6 21.2-4.9 22.15-4.2 22.15-2.8L22.15-2.8Q22.15-1.5 21.13-0.6 20.1 0.3 18.25 0.3L18.25 0.3Q17 0.3 14.3 0.2L14.3 0.2Q11.8 0.1 11 0.1L11 0.1Q7.85 0.1 4.1 0.65L4.1 0.65Q2.45 0.9 1.75 0.9L1.75 0.9Q0.65 0.9-0.1 0.3-0.85-0.3-0.85-1.45L-0.85-1.45Q-0.85-3.25 0.75-4.25 2.35-5.25 5.25-5.3L5.25-5.3 7.6-5.35 7.75-6.45Q8.95-14.45 9.5-17.75L9.5-17.75 10.6-24.3Q11.6-30.1 12.4-36.25L12.4-36.25 8.2-36.2Q6.4-36.2 5.73-36.77 5.05-37.35 5.05-38.4L5.05-38.4Q5.05-41.8 9.95-42.05L9.95-42.05Q12.25-42.15 15.55-42.15L15.55-42.15 24.7-42.1ZM66.8-41.5Q68.35-41.2 69.12-40.45 69.9-39.7 69.9-38.7L69.9-38.7Q69.9-37.05 68.97-36.3 68.05-35.55 66.05-35.7L66.05-35.7Q61.55-36.05 59.02-36.18 56.5-36.3 52.4-36.35L52.4-36.35Q50.55-27.15 49-17.85L49-17.85Q48.45-14.45 47.85-9.98 47.25-5.5 47.05-2.75L47.05-2.75Q46.95-1.3 45.85-0.53 44.75 0.25 43.2 0.25L43.2 0.25Q41.55 0.25 40.65-0.55 39.75-1.35 39.75-2.65L39.75-2.65Q39.75-3.85 40.12-6.63 40.5-9.4 41-12.45L41-12.45Q41.55-15.5 41.85-17.75L41.85-17.75Q42.4-21.55 43.1-25.3 43.8-29.05 44.5-32.4L44.5-32.4Q44.65-33.15 44.85-34.13 45.05-35.1 45.3-36.3L45.3-36.3Q40.4-36.15 37.6-35.5 34.8-34.85 33.62-33.68 32.45-32.5 32.45-30.65L32.45-30.65Q32.45-28.95 33.45-27.4L33.45-27.4Q33.65-27.05 33.65-26.65L33.65-26.65Q33.65-25.7 32.52-24.88 31.4-24.05 30.2-24.05L30.2-24.05Q29.35-24.05 28.8-24.55L28.8-24.55Q27.8-25.4 27.15-26.98 26.5-28.55 26.5-30.55L26.5-30.55Q26.5-34.8 29.27-37.38 32.05-39.95 37.72-41.15 43.4-42.35 52.3-42.35L52.3-42.35Q57.8-42.35 61.07-42.15 64.35-41.95 66.8-41.5L66.8-41.5Z"
                                                                                opacity="1"
                                                                                transform="matrix(1,0,0,1,0,0)"
                                                                                fill="#ffffff"
                                                                                class="undefined-text-0"
                                                                                data-fill-palette-color="quaternary"
                                                                                id="text-0"></path>
                                                                        </svg>
                                                                    </g>
                                                                </svg>
                                                            </g>
                                                        </svg>
                                                    </g>
                                                </svg>
                                            </g>
                                            <g></g>
                                        </svg>
                                    </g>
                                </svg>
                            </g>
                        </svg>
                    </g>
                    <defs></defs>
                </svg>
                <rect width="576" height="360" fill="none" stroke="none" visibility="hidden"></rect>
            </g>
        </svg>
    </g>
</svg>