<svg xmlns="http://www.w3.org/2000/svg" version="1.1" xmlns:xlink="http://www.w3.org/1999/xlink" xmlns:svgjs="http://svgjs.dev/svgjs" width="2000" height="939" viewBox="0 0 2000 939"><g transform="matrix(1,0,0,1,-1.2121209920867386,0.9088852531608609)"><svg viewBox="0 0 396 186" data-background-color="#ffffff" preserveAspectRatio="xMidYMid meet" height="939" width="2000" xmlns="http://www.w3.org/2000/svg" xmlns:xlink="http://www.w3.org/1999/xlink"><g id="tight-bounds" transform="matrix(1,0,0,1,0.24000004356673799,-0.18003477858138695)"><svg viewBox="0 0 395.52 186.36006955716277" height="186.36006955716277" width="395.52"><g><svg viewBox="0 0 698.0566048596108 328.908468437687" height="186.36006955716277" width="395.52"><g transform="matrix(1,0,0,1,300.559004859611,0)"><svg viewBox="0 0 397.49759999999986 328.908468437687" height="328.908468437687" width="397.49759999999986"><g id="textblocktransform"><svg viewBox="0 0 397.49759999999986 328.908468437687" height="328.908468437687" width="397.49759999999986" id="textblock"><g><rect width="397.49759999999986" height="20.97389643877142" x="0" y="257.2829455736008" fill="#ed1703" opacity="1" stroke-width="0" stroke="transparent" fill-opacity="1" class="rect-o-0" data-fill-palette-color="primary" rx="1%" id="o-0" data-palette-color="#ed1703"></rect></g><g transform="matrix(1,0,0,1,0.9887999999999693,0)"><svg viewBox="0 0 395.5199999999999 232.5754759467758" height="232.5754759467758" width="395.5199999999999"><g transform="matrix(1,0,0,1,0,0)"><svg width="395.5199999999999" viewBox="-0.9500000476837158 -41.650001525878906 97.68999481201172 57.45000076293945" height="232.5754759467758" data-palette-color="#ed1703"><path d="M55.95-36.75L55.95-36.75 53.85-36.3Q50.45-30 47.7-20.2L47.7-20.2Q46.75-16.8 44.8-12.63 42.85-8.45 40.15-4.95L40.15-4.95Q30.2 7.8 14.7 7.8L14.7 7.8Q7.5 7.8 3.25 4.7L3.25 4.7Q0.35 2.55-0.6-0.9L-0.6-0.9Q-0.95-2.15-0.95-4.1-0.95-6.05 0.08-8.72 1.1-11.4 3.4-13.48 5.7-15.55 7.05-15.65L7.05-15.65Q7.55-15.65 7.65-15.5L7.65-15.5Q7.8-15.3 7.1-14.95L7.1-14.95Q5.55-14.3 3.65-12L3.65-12Q0.7-8.5 0.7-4.1L0.7-4.1Q0.7-0.75 2.85 1.65L2.85 1.65Q5.55 4.65 10.5 5.75L10.5 5.75Q12.7 6.25 13.85 6.25 15 6.25 16.23 6.23 17.45 6.2 19.45 5.7L19.45 5.7Q23.6 4.65 27.4 2.3 31.2-0.05 33.9-2.78 36.6-5.5 38.9-8.8L38.9-8.8Q42.8-14.45 44.8-19.9L44.8-19.9Q48.3-29.15 52.3-36.05L52.3-36.05Q44.35-34.4 39.65-32.4L39.65-32.4Q34.85-30.3 32.2-27.7L32.2-27.7Q28.9-24.35 27.95-20.15L27.95-20.15Q27.65-18.95 27.65-17.95L27.65-17.95Q27.65-15.85 28.8-14.55 29.95-13.25 31.28-13.25 32.6-13.25 34.13-13.85 35.65-14.45 36.8-15.85L36.8-15.85Q38.4-17.9 38.4-20.7L38.4-20.7Q38.4-22.1 38-22.45L38-22.45Q37.9-22.6 38.1-22.9L38.1-22.9Q38.6-23.65 39.05-22.9L39.05-22.9Q39.7-21.65 39.7-20.18 39.7-18.7 38.75-16.95L38.75-16.95Q37.05-13.75 33.85-12.55L33.85-12.55Q32.25-11.95 30.43-11.95 28.6-11.95 26.5-13.6 24.4-15.25 24.4-18.2L24.4-18.2Q24.4-19.1 24.6-20.15L24.6-20.15Q27.45-33 53.1-37.35L53.1-37.35Q53.55-38.3 54.73-39.7 55.9-41.1 56.73-41.38 57.55-41.65 58.1-41.65L58.1-41.65Q59.75-41.65 59.8-40.25L59.8-40.25Q59.8-38.75 58.6-37.95L58.6-37.95Q57.5-37.25 55.95-36.75ZM54.7-37.55L54.7-37.55Q58.1-38.25 57.95-39.45L57.95-39.45Q57.85-40.05 57.28-40.05 56.7-40.05 54.7-37.55ZM47.2-4L47.2-4Q47.2-8.15 51.2-17.9L51.2-17.9 48.6-17.9Q48.35-17.9 48.27-18.18 48.2-18.45 48.32-18.73 48.45-19 48.7-19L48.7-19 51.7-19Q53.5-22.95 55.05-25.6 56.6-28.25 57.9-29.18 59.2-30.1 59.77-30.1 60.35-30.1 60.6-30L60.6-30Q61.75-29.45 61.75-27.73 61.75-26 60.6-23.55 59.45-21.1 58.35-19L58.35-19 60.75-19Q61-19 61.07-18.73 61.15-18.45 61.02-18.18 60.9-17.9 60.65-17.9L60.65-17.9 57.75-17.9Q55-13.25 51.1-9.65L51.1-9.65 49.95-4.55Q49.8-3.9 49.8-3.28 49.8-2.65 50.15-2 50.5-1.35 51.25-1.35L51.25-1.35Q52.1-1.35 53.15-1.95L53.15-1.95Q55.55-3.75 58.45-9.5L58.45-9.5Q58.65-9.95 58.92-10.05 59.2-10.15 59.25-9.93 59.3-9.7 59.1-9.2L59.1-9.2Q57.45-5.75 56.5-4.3L56.5-4.3Q53.8 0.05 50.75 0.05L50.75 0.05Q49.2 0.05 48.2-1.1 47.2-2.25 47.2-4ZM54.75-19L57.25-19Q60.55-24.9 60.55-27.2L60.55-27.2Q60.55-28.2 60.2-28.2L60.2-28.2Q59.65-28.2 58.52-26.6 57.4-25 54.75-19L54.75-19ZM56.6-17.9L56.6-17.9 54.25-17.9Q53.65-16.5 51.55-11.25L51.55-11.25Q54.25-14.05 56.6-17.9ZM73.65-13.55Q72.75-12.65 71.09-9.47 69.45-6.3 69.12-4.73 68.8-3.15 68.8-2.18 68.8-1.2 69.55-1.2L69.55-1.2Q70.5-1.2 71.9-2.95L71.9-2.95Q73.95-5.5 75.95-9.6L75.95-9.6Q76.15-10.05 76.4-10.1L76.4-10.1Q76.8-10.25 76.8-9.8L76.8-9.8Q76.8-9.55 76.65-9.2L76.65-9.2Q72.05 0.1 68.9 0.1L68.9 0.1Q67.45 0.1 66.55-1.3L66.55-1.3Q66.09-2.05 66.09-3.3 66.09-4.55 66.59-6.35L66.59-6.35Q62.6 0.1 59.7 0.1L59.7 0.1Q58.9 0.1 58.25-0.4L58.25-0.4Q56.75-1.45 56.75-4L56.75-4Q56.75-8.9 61-13.95L61-13.95Q63.4-16.75 66.9-17.6L66.9-17.6Q67.84-17.85 68.7-17.85L68.7-17.85Q71-17.85 72.59-16.25L72.59-16.25Q73.09-15.7 72.9-15.2 72.7-14.7 72.05-14.8L72.05-14.8Q71.5-16.6 69.65-16.6L69.65-16.6Q67.5-16.6 64.34-13.2L64.34-13.2Q62.55-11.2 61-8.5L61-8.5Q59.05-5.25 59.05-3.3 59.05-1.35 60.3-1.35L60.3-1.35Q63.3-1.35 68.15-10.55L68.15-10.55Q69.09-12.4 69.75-13.08 70.4-13.75 71.4-13.75L71.4-13.75Q71.59-13.75 72.42-13.6 73.25-13.45 73.65-13.55L73.65-13.55ZM68.99 15.8L68.99 15.8Q66.79 15.8 65.59 14.88 64.39 13.95 64.39 12.65 64.39 11.35 65.14 9.7L65.14 9.7Q66.44 7.15 69.84 5.6L69.84 5.6Q72.39 4.4 76.59 3.38 80.79 2.35 81.99 2L81.99 2Q83.79-1.15 86.29-9.25L86.29-9.25Q83.39-4.15 81.44-2.1 79.49-0.05 77.49-0.05L77.49-0.05Q74.79-0.05 74.34-2.3L74.34-2.3Q74.14-2.65 74.24-3.35 74.34-4.05 74.37-4.35 74.39-4.65 74.69-5.33 74.99-6 75.09-6.3L75.09-6.3Q75.64-7.45 76.04-8.1L76.04-8.1Q75.24-8.1 75.59-8.9L75.59-8.9 76.49-10.65Q78.19-13.9 79.29-16.15L79.29-16.15Q79.79-17.2 81.24-17.2L81.24-17.2 84.29-17.2Q84.19-17.1 83.79-16.8L83.79-16.8Q82.89-16.2 82.44-15.4L82.44-15.4Q80.64-12.3 77.94-6.55L77.94-6.55Q76.84-4.2 76.84-3.1 76.84-2 77.22-1.55 77.59-1.1 78.24-1.1L78.24-1.1Q79.19-1.1 80.89-3.1L80.89-3.1Q84.44-7.25 88.74-16.15L88.74-16.15Q89.29-17.2 90.69-17.2L90.69-17.2 93.39-17.2Q92.09-16.3 91.34-14.93 90.59-13.55 89.72-11.2 88.84-8.85 87.52-4.95 86.19-1.05 85.49 0.9L85.49 0.9Q90.19-0.5 92.69-4.05L92.69-4.05Q93.79-5.6 95.84-9.55L95.84-9.55Q96.19-10.25 96.47-10.1 96.74-9.95 96.74-9.7 96.74-9.45 95.92-7.78 95.09-6.1 94.24-4.67 93.39-3.25 92.04-1.75 90.69-0.25 89.04 0.63 87.39 1.5 84.64 2.5L84.64 2.5Q80.79 9.5 76.89 12.8L76.89 12.8Q73.24 15.8 68.99 15.8ZM66.09 10.85L66.09 10.85Q65.54 11.95 65.54 12.88 65.54 13.8 66.24 14.3 66.94 14.8 67.99 14.8L67.99 14.8Q70.89 14.8 74.19 11.83 77.49 8.85 79.99 5.45L79.99 5.45 81.09 3.6Q72.84 5.75 70.69 6.7L70.69 6.7Q67.49 8.1 66.09 10.85Z" opacity="1" transform="matrix(1,0,0,1,0,0)" fill="#ed1703" class="undefined-text-0" data-fill-palette-color="primary" id="text-0"></path></svg></g></svg></g><g transform="matrix(1,0,0,1,0,302.96431163919715)"><svg viewBox="0 0 232.20979199999994 25.944156798489846" height="25.944156798489846" width="232.20979199999994"><g transform="matrix(1,0,0,1,0,0)"><svg width="232.20979199999994" viewBox="4.349999904632568 -36.099998474121094 423.75 47.349998474121094" height="25.944156798489846" data-palette-color="#ed1703"><path d="M7.45 0L4.35 0 4.35-34.75 24.85-34.75 24.85-31.95 7.45-31.95 7.45-17.6 22.25-17.6 22.25-14.85 7.45-14.85 7.45 0ZM44.85-4.3L44.85-25 47.8-25 47.8 0 44.85 0 44.85-1.85Q41 0.5 37.15 0.5L37.15 0.5Q32.05 0.5 30.42-2.1 28.8-4.7 28.8-11.95L28.8-11.95 28.8-25 31.75-25 31.75-12Q31.75-6.2 32.82-4.2 33.9-2.2 37.5-2.2L37.5-2.2Q39.25-2.2 41.1-2.73 42.95-3.25 43.9-3.8L43.9-3.8 44.85-4.3ZM58.55 0L55.59 0 55.59-36.1 58.55-36.1 58.55 0ZM69.59 0L66.64 0 66.64-36.1 69.59-36.1 69.59 0ZM92.39-12.45L77.19-12.45 77.19-15.25 92.39-15.25 92.39-12.45ZM107.19-22.75L107.19-22.75Q101.29-22.75 101.29-18.5L101.29-18.5Q101.29-16.55 102.59-15.75 103.89-14.95 108.46-14.18 113.04-13.4 114.91-12.05 116.79-10.7 116.79-6.88 116.79-3.05 114.34-1.28 111.89 0.5 107.14 0.5L107.14 0.5Q104.39 0.5 100.04-0.2L100.04-0.2 98.59-0.4 98.79-3.05Q104.39-2.2 107.39-2.2 110.39-2.2 112.06-3.25 113.74-4.3 113.74-6.8 113.74-9.3 112.36-10.13 110.99-10.95 106.46-11.65 101.94-12.35 100.09-13.65 98.24-14.95 98.24-18.55 98.24-22.15 100.79-23.8 103.34-25.45 107.09-25.45L107.09-25.45Q110.09-25.45 114.59-24.8L114.59-24.8 115.94-24.6 115.84-21.95Q110.49-22.75 107.19-22.75ZM135.49-25L135.49-22.35 127.14-22.35 127.14-10Q127.14-5.15 127.84-3.65 128.53-2.15 131.14-2.15L131.14-2.15 135.74-2.5 135.94 0.05Q132.64 0.55 130.89 0.55L130.89 0.55Q127.09 0.55 125.61-1.33 124.14-3.2 124.14-8.5L124.14-8.5 124.14-22.35 120.44-22.35 120.44-25 124.14-25 124.14-32.85 127.14-32.85 127.14-25 135.49-25ZM157.38-17.55L157.38-17.55 157.38-4.15Q157.58-2.3 160.63-1.95L160.63-1.95 160.48 0.45Q156.63 0.45 154.83-1.55L154.83-1.55Q150.13 0.5 145.43 0.5L145.43 0.5Q142.08 0.5 140.33-1.43 138.58-3.35 138.58-6.93 138.58-10.5 140.36-12.23 142.13-13.95 145.93-14.35L145.93-14.35 154.43-15.2 154.43-17.55Q154.43-20.35 153.21-21.58 151.98-22.8 149.93-22.8L149.93-22.8Q146.73-22.8 141.63-22.2L141.63-22.2 140.08-22.05 139.93-24.45Q145.43-25.5 149.56-25.5 153.68-25.5 155.53-23.55 157.38-21.6 157.38-17.55ZM141.68-7.1L141.68-7.1Q141.68-2.05 145.83-2.05L145.83-2.05Q147.63-2.05 149.78-2.48 151.93-2.9 153.18-3.35L153.18-3.35 154.43-3.8 154.43-12.85 146.28-12Q143.83-11.8 142.76-10.6 141.68-9.4 141.68-7.1ZM174.43-25.5L174.43-25.5Q176.68-25.5 179.78-25L179.78-25 180.93-24.85 180.78-22.3Q176.83-22.8 174.93-22.8L174.93-22.8Q170.48-22.8 168.83-20.63 167.18-18.45 167.18-12.63 167.18-6.8 168.68-4.5 170.18-2.2 174.93-2.2L174.93-2.2 180.88-2.65 180.98-0.1Q176.53 0.5 174.38 0.5L174.38 0.5Q168.43 0.5 166.25-2.45 164.08-5.4 164.08-12.6 164.08-19.8 166.45-22.65 168.83-25.5 174.43-25.5ZM189.73-11.95L189.73 0 186.78 0 186.78-36.1 189.73-36.1 189.73-14.6 193.98-14.7 201.68-25 205.13-25 196.58-13.55 205.53 0 202.03 0 194.03-12.05 189.73-11.95ZM234.52 0L234.52 0 221.87 0 221.87-34.75 234.52-34.75Q246.87-34.75 246.87-17.85L246.87-17.85Q246.87 0 234.52 0ZM243.67-17.85L243.67-17.85Q243.67-31.95 234.52-31.95L234.52-31.95 224.97-31.95 224.97-2.75 234.52-2.75Q243.67-2.75 243.67-17.85ZM270.12-2.5L270.12-2.5 271.62-2.65 271.72-0.2Q266.07 0.5 262.17 0.5L262.17 0.5Q256.77 0.45 254.62-2.7 252.47-5.85 252.47-12.4L252.47-12.4Q252.47-25.5 262.77-25.5L262.77-25.5Q267.72-25.5 270.17-22.68 272.62-19.85 272.62-13.65L272.62-13.65 272.52-11.25 255.52-11.25Q255.52-6.65 257.1-4.42 258.67-2.2 262.5-2.2 266.32-2.2 270.12-2.5ZM255.52-13.75L255.52-13.75 269.62-13.75Q269.62-18.7 268-20.8 266.37-22.9 262.8-22.9 259.22-22.9 257.37-20.73 255.52-18.55 255.52-13.75ZM283.27 0L275.97-25 279.27-25 285.52-2.6 287.52-2.6 294.02-25 297.12-25 289.82 0 283.27 0ZM318.32-2.5L318.32-2.5 319.82-2.65 319.92-0.2Q314.27 0.5 310.37 0.5L310.37 0.5Q304.97 0.45 302.82-2.7 300.67-5.85 300.67-12.4L300.67-12.4Q300.67-25.5 310.97-25.5L310.97-25.5Q315.92-25.5 318.37-22.68 320.82-19.85 320.82-13.65L320.82-13.65 320.72-11.25 303.72-11.25Q303.72-6.65 305.29-4.42 306.87-2.2 310.69-2.2 314.52-2.2 318.32-2.5ZM303.72-13.75L303.72-13.75 317.82-13.75Q317.82-18.7 316.19-20.8 314.57-22.9 310.99-22.9 307.42-22.9 305.57-20.73 303.72-18.55 303.72-13.75ZM330.21 0L327.26 0 327.26-36.1 330.21-36.1 330.21 0ZM336.96-12.55Q336.96-19.6 339.34-22.55 341.71-25.5 347.44-25.5 353.16-25.5 355.54-22.55 357.91-19.6 357.91-12.55 357.91-5.5 355.74-2.5 353.56 0.5 347.46 0.5 341.36 0.5 339.16-2.5 336.96-5.5 336.96-12.55ZM340.06-12.63Q340.06-6.7 341.44-4.42 342.81-2.15 347.44-2.15 352.06-2.15 353.46-4.45 354.86-6.75 354.86-12.63 354.86-18.5 353.29-20.68 351.71-22.85 347.46-22.85 343.21-22.85 341.64-20.7 340.06-18.55 340.06-12.63ZM367.31 11.25L364.36 11.25 364.36-25 367.31-25 367.31-23.1Q371.21-25.5 375.53-25.5 379.86-25.5 381.98-22.45 384.11-19.4 384.11-12.53 384.11-5.65 381.61-2.58 379.11 0.5 373.31 0.5L373.31 0.5Q370.21 0.5 367.31-0.15L367.31-0.15 367.31 11.25ZM374.91-22.8L374.91-22.8Q373.26-22.8 371.36-22.25 369.46-21.7 368.41-21.1L368.41-21.1 367.31-20.55 367.31-2.75Q370.71-2.15 373.21-2.15L373.21-2.15Q377.51-2.15 379.26-4.58 381.01-7 381.01-12.58 381.01-18.15 379.48-20.48 377.96-22.8 374.91-22.8ZM407.06-2.5L407.06-2.5 408.56-2.65 408.66-0.2Q403.01 0.5 399.11 0.5L399.11 0.5Q393.71 0.45 391.56-2.7 389.41-5.85 389.41-12.4L389.41-12.4Q389.41-25.5 399.71-25.5L399.71-25.5Q404.66-25.5 407.11-22.68 409.56-19.85 409.56-13.65L409.56-13.65 409.46-11.25 392.46-11.25Q392.46-6.65 394.03-4.42 395.61-2.2 399.43-2.2 403.26-2.2 407.06-2.5ZM392.46-13.75L392.46-13.75 406.56-13.75Q406.56-18.7 404.93-20.8 403.31-22.9 399.73-22.9 396.16-22.9 394.31-20.73 392.46-18.55 392.46-13.75ZM418.65 0L415.7 0 415.7-25 418.65-25 418.65-21.4Q420.5-22.7 423.18-23.9 425.85-25.1 428.1-25.5L428.1-25.5 428.1-22.5Q425.95-22.05 423.6-21.13 421.25-20.2 419.95-19.5L419.95-19.5 418.65-18.75 418.65 0Z" opacity="1" transform="matrix(1,0,0,1,0,0)" fill="#ed1703" class="undefined-text-1" data-fill-palette-color="secondary" id="text-1"></path></svg></g></svg></g></svg></g></svg></g><g transform="matrix(1,0,0,1,0,43.89683555826015)"><svg viewBox="0 0 245.65351679999992 241.11479732116672" height="241.11479732116672" width="245.65351679999992"><g><svg xmlns="http://www.w3.org/2000/svg" xmlns:xlink="http://www.w3.org/1999/xlink" version="1.1" x="0" y="0" viewBox="4.999800682067871 5.830621242523193 90.00125122070312 88.33837890625" enable-background="new 0 0 100 100" xml:space="preserve" height="241.11479732116672" width="245.65351679999992" class="icon-icon-0" data-fill-palette-color="accent" id="icon-0"><g fill="#ed1703" data-fill-palette-color="accent"><g fill="#ed1703" data-fill-palette-color="accent"><path fill="#ed1703" d="M49.896 60.677c-0.512 0-1.023-0.13-1.483-0.392L6.522 36.486c-0.933-0.529-1.51-1.513-1.521-2.583-0.01-1.069 0.549-2.065 1.47-2.612l42.1-25.038c0.941-0.562 2.115-0.562 3.062-0.007l41.889 24.676c0.92 0.543 1.485 1.537 1.479 2.607-0.007 1.069-0.58 2.055-1.51 2.588L51.393 60.277C50.93 60.544 50.413 60.677 49.896 60.677zM13.985 33.813L49.89 54.211l36.127-20.733-35.904-21.15L13.985 33.813z" data-fill-palette-color="accent"></path></g><g fill="#ed1703" data-fill-palette-color="accent"><path fill="#ed1703" d="M49.896 77.431c-0.512 0-1.023-0.13-1.483-0.392L6.522 53.241c-1.444-0.819-1.949-2.654-1.13-4.098s2.66-1.951 4.097-1.128l40.4 22.95 40.609-23.305c1.438-0.826 3.277-0.33 4.102 1.11 0.826 1.439 0.328 3.276-1.111 4.102l-42.097 24.16C50.93 77.299 50.413 77.431 49.896 77.431z" data-fill-palette-color="accent"></path></g><g fill="#ed1703" data-fill-palette-color="accent"><path fill="#ed1703" d="M49.896 94.169c-0.512 0-1.023-0.13-1.483-0.392L6.522 69.979c-1.444-0.819-1.949-2.654-1.13-4.098 0.819-1.442 2.66-1.948 4.097-1.128l40.4 22.95 40.609-23.305c1.438-0.829 3.277-0.329 4.102 1.11 0.826 1.439 0.328 3.276-1.111 4.102l-42.097 24.16C50.93 94.037 50.413 94.169 49.896 94.169z" data-fill-palette-color="accent"></path></g></g></svg></g></svg></g></svg></g><defs></defs></svg><rect width="395.52" height="186.36006955716277" fill="none" stroke="none" visibility="hidden"></rect></g></svg></g></svg>